<svg xmlns="http://www.w3.org/2000/svg" width="70.077" height="49.313" viewBox="0 0 70.077 49.313">
  <path id="delivery-truck" d="M73.779,33.5,63.138,23.771a1.178,1.178,0,0,0-.908-.389H50.42a3.839,3.839,0,0,0-1.3.26V16.893A3.824,3.824,0,0,0,45.229,13H8.893A3.824,3.824,0,0,0,5,16.893V37.657a3.623,3.623,0,0,0,1.038,2.6A3.623,3.623,0,0,0,5,42.848v7.786a3.824,3.824,0,0,0,3.893,3.893h3.893a7.786,7.786,0,0,0,15.573,0h16.87a3.623,3.623,0,0,0,2.6-1.038,3.623,3.623,0,0,0,2.6,1.038h1.3a7.786,7.786,0,1,0,15.573,0h3.893a3.824,3.824,0,0,0,3.893-3.893V36.359A4.168,4.168,0,0,0,73.779,33.5ZM7.6,16.893a1.226,1.226,0,0,1,1.3-1.3H45.229a1.226,1.226,0,0,1,1.3,1.3V37.657a1.226,1.226,0,0,1-1.3,1.3H8.893a1.226,1.226,0,0,1-1.3-1.3ZM20.573,59.718a5.191,5.191,0,1,1,5.191-5.191A5.206,5.206,0,0,1,20.573,59.718Zm24.657-7.786H27.84a7.682,7.682,0,0,0-14.534,0H8.893a1.226,1.226,0,0,1-1.3-1.3V42.848a1.226,1.226,0,0,1,1.3-1.3H45.229a1.226,1.226,0,0,1,1.3,1.3v7.786A1.226,1.226,0,0,1,45.229,51.932ZM59.5,59.718A5.191,5.191,0,1,1,64.7,54.527,5.206,5.206,0,0,1,59.5,59.718Zm12.977-9.084a1.226,1.226,0,0,1-1.3,1.3H66.771a7.774,7.774,0,0,0-14.664,0H50.42a1.226,1.226,0,0,1-1.3-1.3V27.275a1.226,1.226,0,0,1,1.3-1.3H61.71l10.382,9.473a1.4,1.4,0,0,1,.389.908Z" transform="translate(-5 -13)" fill="#fff"/>
</svg>
