<svg xmlns="http://www.w3.org/2000/svg" width="42.469" height="60.586" viewBox="0 0 42.469 60.586">
  <g id="padlock" transform="translate(-111.703 -28.269)">
    <path id="Path_7" data-name="Path 7" d="M132.942,246.607a21.235,21.235,0,1,1,21.23-21.23A21.259,21.259,0,0,1,132.942,246.607Zm0-40.357a19.122,19.122,0,1,0,19.118,19.126A19.148,19.148,0,0,0,132.942,206.251Z" transform="translate(0 -157.752)" fill="#fff"/>
    <path id="Path_8" data-name="Path 8" d="M187.278,33.207a11.818,11.818,0,1,0-23.635,0c0,19.461-2.247,9.194-2.113,0a13.93,13.93,0,1,1,27.861,0C189.391,52.668,186.934,43.013,187.278,33.207ZM175.46,59.577a4.77,4.77,0,1,1,4.767-4.766A4.775,4.775,0,0,1,175.46,59.577Zm0-7.428a2.658,2.658,0,1,0,2.655,2.662A2.665,2.665,0,0,0,175.46,52.149Z" transform="translate(-42.518 9)" fill="#fff"/>
    <path id="Path_9" data-name="Path 9" d="M250.352,349.613a1.056,1.056,0,0,1-1.056-1.056v-5.772a1.056,1.056,0,0,1,2.113,0v5.772A1.056,1.056,0,0,1,250.352,349.613Z" transform="translate(-117.411 -274.161)" fill="#fff"/>
  </g>
</svg>
